HIERARCHY
ROOT Hips
{
	OFFSET 7.739027 1.324544 -7.282124
	CHANNELS 6 Xposition Yposition Zposition Zrotation Yrotation Xrotation 
	JOINT Spine
	{
		OFFSET -0.000035 8.340413 -2.713930
		CHANNELS 3 Zrotation Yrotation Xrotation
		JOINT Spine1
		{
			OFFSET 0.000035 11.909936 -2.100032
			CHANNELS 3 Zrotation Yrotation Xrotation
			JOINT Spine2
			{
				OFFSET 0.000035 12.047686 -1.054081
				CHANNELS 3 Zrotation Yrotation Xrotation
				JOINT Spine3
				{
					OFFSET -0.000053 12.093753 -0.000048
					CHANNELS 3 Zrotation Yrotation Xrotation
					JOINT Neck
					{
						OFFSET 0.000010 15.549125 1.554853
						CHANNELS 3 Zrotation Yrotation Xrotation
						JOINT Neck1
						{
							OFFSET 0.000060 4.687353 0.410086
							CHANNELS 3 Zrotation Yrotation Xrotation
							JOINT Head
							{
								OFFSET 0.000034 4.633803 0.816988
								CHANNELS 3 Zrotation Yrotation Xrotation
								JOINT HeadEnd
								{
									OFFSET -0.000021 9.727690 -0.000047
									CHANNELS 3 Zrotation Yrotation Xrotation
									End Site
									{
										OFFSET 0.000000 0.000000 0.000000
									}
								}
							}
						}
					}
					JOINT RightShoulder
					{
						OFFSET -0.000005 11.106444 6.072607
						CHANNELS 3 Zrotation Yrotation Xrotation
						JOINT RightArm
						{
							OFFSET -19.427908 0.000036 0.000046
							CHANNELS 3 Zrotation Yrotation Xrotation
							JOINT RightForeArm
							{
								OFFSET -29.350734 -0.000028 -0.000061
								CHANNELS 3 Zrotation Yrotation Xrotation
								JOINT RightHand
								{
									OFFSET -27.018024 -0.000044 0.000019
									CHANNELS 3 Zrotation Yrotation Xrotation
									JOINT RightHandMiddle1
									{
										OFFSET -9.244048 -0.000022 -0.000011
										CHANNELS 3 Zrotation Yrotation Xrotation
										JOINT RightHandMiddle2
										{
											OFFSET -4.870019 -0.000003 0.000041
											CHANNELS 3 Zrotation Yrotation Xrotation
											JOINT RightHandMiddle3
											{
												OFFSET -3.169057 -0.000017 0.000005
												CHANNELS 3 Zrotation Yrotation Xrotation
												JOINT RightHandMiddle4
												{
													OFFSET -1.888369 0.000006 -0.000036
													CHANNELS 3 Zrotation Yrotation Xrotation
													End Site
													{
														OFFSET 0.000000 0.000000 0.000000
													}
												}
											}
										}
									}
									JOINT RightHandRing
									{
										OFFSET -0.250001 -0.249983 -0.956486
										CHANNELS 3 Zrotation Yrotation Xrotation
										JOINT RightHandRing1
										{
											OFFSET -8.140194 -0.000011 -0.734592
											CHANNELS 3 Zrotation Yrotation Xrotation
											JOINT RightHandRing2
											{
												OFFSET -4.501538 0.000018 -0.406250
												CHANNELS 3 Zrotation Yrotation Xrotation
												JOINT RightHandRing3
												{
													OFFSET -3.068849 -0.000018 -0.276966
													CHANNELS 3 Zrotation Yrotation Xrotation
													JOINT RightHandRing4
													{
														OFFSET -1.869933 0.000003 -0.168757
														CHANNELS 3 Zrotation Yrotation Xrotation
														End Site
														{
															OFFSET 0.000000 0.000000 0.000000
														}
													}
												}
											}
										}
										JOINT RightHandPinky
										{
											OFFSET -0.162985 -0.250025 -0.975118
											CHANNELS 3 Zrotation Yrotation Xrotation
											JOINT RightHandPinky1
											{
												OFFSET -6.681487 0.000005 -1.494092
												CHANNELS 3 Zrotation Yrotation Xrotation
												JOINT RightHandPinky2
												{
													OFFSET -3.580957 -0.000006 -0.800781
													CHANNELS 3 Zrotation Yrotation Xrotation
													JOINT RightHandPinky3
													{
														OFFSET -2.276495 0.000018 -0.509075
														CHANNELS 3 Zrotation Yrotation Xrotation
														JOINT RightHandPinky4
														{
															OFFSET -1.690353 0.000025 -0.377998
															CHANNELS 3 Zrotation Yrotation Xrotation
															End Site
															{
																OFFSET 0.000000 0.000000 0.000000
															}
														}
													}
												}
											}
										}
									}
									JOINT RightHandIndex
									{
										OFFSET -0.250017 -0.250013 0.956498
										CHANNELS 3 Zrotation Yrotation Xrotation
										JOINT RightHandIndex1
										{
											OFFSET -8.934100 0.000008 0.806268
											CHANNELS 3 Zrotation Yrotation Xrotation
											JOINT RightHandIndex2
											{
												OFFSET -4.694684 0.000034 0.423707
												CHANNELS 3 Zrotation Yrotation Xrotation
												JOINT RightHandIndex3
												{
													OFFSET -2.811736 -0.000019 0.253755
													CHANNELS 3 Zrotation Yrotation Xrotation
													JOINT RightHandIndex4
													{
														OFFSET -1.709979 -0.000017 0.154322
														CHANNELS 3 Zrotation Yrotation Xrotation
														End Site
														{
															OFFSET 0.000000 0.000000 0.000000
														}
													}
												}
											}
										}
										JOINT RightHandThumb1
										{
											OFFSET -0.163033 -0.750029 0.975099
											CHANNELS 3 Zrotation Yrotation Xrotation
											JOINT RightHandThumb2
											{
												OFFSET -5.411660 0.835511 2.244720
												CHANNELS 3 Zrotation Yrotation Xrotation
												JOINT RightHandThumb3
												{
													OFFSET -3.567173 0.550768 1.479603
													CHANNELS 3 Zrotation Yrotation Xrotation
													JOINT RightHandThumb4
													{
														OFFSET -2.150540 0.332036 0.892023
														CHANNELS 3 Zrotation Yrotation Xrotation
														End Site
														{
															OFFSET 0.000000 0.000000 0.000000
														}
													}
												}
											}
										}
									}
								}
							}
						}
					}
					JOINT LeftShoulder
					{
						OFFSET -0.000044 11.106441 6.072595
						CHANNELS 3 Zrotation Yrotation Xrotation
						JOINT LeftArm
						{
							OFFSET 19.427871 -0.000084 -0.000032
							CHANNELS 3 Zrotation Yrotation Xrotation
							JOINT LeftForeArm
							{
								OFFSET 29.350749 -0.000032 0.000029
								CHANNELS 3 Zrotation Yrotation Xrotation
								JOINT LeftHand
								{
									OFFSET 27.018140 -0.000022 -0.000039
									CHANNELS 3 Zrotation Yrotation Xrotation
									JOINT LeftHandMiddle1
									{
										OFFSET 9.402673 -0.000001 0.000020
										CHANNELS 3 Zrotation Yrotation Xrotation
										JOINT LeftHandMiddle2
										{
											OFFSET 4.950101 0.000005 0.000038
											CHANNELS 3 Zrotation Yrotation Xrotation
											JOINT LeftHandMiddle3
											{
												OFFSET 3.211986 -0.000035 -0.000023
												CHANNELS 3 Zrotation Yrotation Xrotation
												JOINT LeftHandMiddle4
												{
													OFFSET 1.927593 0.000016 -0.000077
													CHANNELS 3 Zrotation Yrotation Xrotation
													End Site
													{
														OFFSET 0.000000 0.000000 0.000000
													}
												}
											}
										}
									}
									JOINT LeftHandRing
									{
										OFFSET 0.249977 -0.249994 -0.906121
										CHANNELS 3 Zrotation Yrotation Xrotation
										JOINT LeftHandRing1
										{
											OFFSET 8.286075 0.000016 -0.747777
											CHANNELS 3 Zrotation Yrotation Xrotation
											JOINT LeftHandRing2
											{
												OFFSET 4.585455 -0.000017 -0.413800
												CHANNELS 3 Zrotation Yrotation Xrotation
												JOINT LeftHandRing3
												{
													OFFSET 3.124403 0.000014 -0.281965
													CHANNELS 3 Zrotation Yrotation Xrotation
													JOINT LeftHandRing4
													{
														OFFSET 1.908761 -0.000043 -0.172245
														CHANNELS 3 Zrotation Yrotation Xrotation
														End Site
														{
															OFFSET 0.000000 0.000000 0.000000
														}
													}
												}
											}
										}
										JOINT LeftHandPinky
										{
											OFFSET 0.167548 -0.250006 -0.924988
											CHANNELS 3 Zrotation Yrotation Xrotation
											JOINT LeftHandPinky1
											{
												OFFSET 6.823489 0.000016 -1.525883
												CHANNELS 3 Zrotation Yrotation Xrotation
												JOINT LeftHandPinky2
												{
													OFFSET 3.642846 0.000010 -0.814594
													CHANNELS 3 Zrotation Yrotation Xrotation
													JOINT LeftHandPinky3
													{
														OFFSET 2.333083 -0.000022 -0.521751
														CHANNELS 3 Zrotation Yrotation Xrotation
														JOINT LeftHandPinky4
														{
															OFFSET 1.725457 -0.000008 -0.385863
															CHANNELS 3 Zrotation Yrotation Xrotation
															End Site
															{
																OFFSET 0.000000 0.000000 0.000000
															}
														}
													}
												}
											}
										}
									}
									JOINT LeftHandIndex
									{
										OFFSET 0.250026 -0.250006 0.906161
										CHANNELS 3 Zrotation Yrotation Xrotation
										JOINT LeftHandIndex1
										{
											OFFSET 9.088003 -0.000016 0.820121
											CHANNELS 3 Zrotation Yrotation Xrotation
											JOINT LeftHandIndex2
											{
												OFFSET 4.776542 0.000017 0.431074
												CHANNELS 3 Zrotation Yrotation Xrotation
												JOINT LeftHandIndex3
												{
													OFFSET 2.865121 -0.000001 0.258579
													CHANNELS 3 Zrotation Yrotation Xrotation
													JOINT LeftHandIndex4
													{
														OFFSET 1.745467 -0.000001 0.157507
														CHANNELS 3 Zrotation Yrotation Xrotation
														End Site
														{
															OFFSET 0.000000 0.000000 0.000000
														}
													}
												}
											}
										}
										JOINT LeftHandThumb1
										{
											OFFSET 0.167535 -0.749983 0.924975
											CHANNELS 3 Zrotation Yrotation Xrotation
											JOINT LeftHandThumb2
											{
												OFFSET 5.551443 0.857131 2.302699
												CHANNELS 3 Zrotation Yrotation Xrotation
												JOINT LeftHandThumb3
												{
													OFFSET 3.625641 0.559782 1.503880
													CHANNELS 3 Zrotation Yrotation Xrotation
													JOINT LeftHandThumb4
													{
														OFFSET 2.195255 0.338950 0.910537
														CHANNELS 3 Zrotation Yrotation Xrotation
														End Site
														{
															OFFSET 0.000000 0.000000 0.000000
														}
													}
												}
											}
										}
									}
								}
							}
						}
					}
				}
			}
		}
	}
	JOINT RightUpLeg
	{
		OFFSET -8.786542 -0.000042 0.000030
		CHANNELS 3 Zrotation Yrotation Xrotation
		JOINT RightLeg
		{
			OFFSET -0.000023 -42.170384 -0.000015
			CHANNELS 3 Zrotation Yrotation Xrotation
			JOINT RightFoot
			{
				OFFSET -0.000019 -45.949131 -0.000039
				CHANNELS 3 Zrotation Yrotation Xrotation
				JOINT RightForeFoot
				{
					OFFSET 0.000025 -4.685800 -0.000032
					CHANNELS 3 Zrotation Yrotation Xrotation
					JOINT RightToeBase
					{
						OFFSET -0.000006 0.000033 18.351078
						CHANNELS 3 Zrotation Yrotation Xrotation
						JOINT RightToeBaseEnd
						{
							OFFSET 0.000068 -0.000032 6.416889
							CHANNELS 3 Zrotation Yrotation Xrotation
							End Site
							{
								OFFSET 0.000000 0.000000 0.000000
							}
						}
					}
				}
			}
		}
	}
	JOINT LeftUpLeg
	{
		OFFSET 8.786502 0.000044 0.000007
		CHANNELS 3 Zrotation Yrotation Xrotation
		JOINT LeftLeg
		{
			OFFSET -0.000017 -42.170424 0.000028
			CHANNELS 3 Zrotation Yrotation Xrotation
			JOINT LeftFoot
			{
				OFFSET 0.000004 -45.949144 -0.000033
				CHANNELS 3 Zrotation Yrotation Xrotation
				JOINT LeftForeFoot
				{
					OFFSET 0.000016 -4.685836 0.000011
					CHANNELS 3 Zrotation Yrotation Xrotation
					JOINT LeftToeBase
					{
						OFFSET 0.000050 -0.000020 18.351065
						CHANNELS 3 Zrotation Yrotation Xrotation
						JOINT LeftToeBaseEnd
						{
							OFFSET 0.000029 0.000025 7.521984
							CHANNELS 3 Zrotation Yrotation Xrotation
							End Site
							{
								OFFSET 0.000000 0.000000 0.000000
							}
						}
					}
				}
			}
		}
	}
}
MOTION
Frames: 4
Frame Time: 0.066667
7.739027 1.324544 -7.282124 1.863215 21.635105 -3.780543 -0.078154 -0.294514 5.614688 -0.059943 -0.025985 -1.524795 -0.456956 -0.202994 0.466741 0.827060 0.484162 7.167496 7.604135 -3.340493 4.435362 -11.069245 1.492437 3.158997 -3.571789 0.647517 1.016212 0.000036 -0.001471 -0.000151 12.972171 -9.297383 -2.124845 63.059402 -2.687528 27.626312 -179.999924 58.305271 168.823639 -8.035226 -11.986014 -0.013358 37.786907 -5.772855 0.001632 38.552097 0.000881 -0.000339 24.284845 -0.001201 0.001435 0.002063 -0.002921 -0.001459 -1.348425 -1.109101 -7.724038 40.934013 -5.596577 -3.379000 47.457684 1.667452 -3.811512 20.668905 0.333194 -1.825809 -0.000373 0.000092 -0.000438 -2.621644 -4.072743 -5.346068 26.818371 1.618361 -5.788414 49.150238 4.475888 -9.743803 33.863247 2.181780 -7.159381 -0.000572 0.000050 -0.000271 -1.032076 7.484886 -2.051713 24.191301 -10.845162 2.195086 25.155544 -0.482508 2.197637 21.366127 -0.355242 1.884949 0.000679 -0.000021 0.000276 7.119525 2.476526 52.582073 6.472256 -5.204230 1.726311 12.907013 -8.696773 3.193728 -0.003360 0.002124 0.000282 -15.934378 4.686957 -1.330617 -55.578751 2.729940 30.686340 -179.999954 -47.979153 179.745346 2.289253 18.882425 -0.005356 -35.091022 -0.093028 -0.000508 -32.268822 -0.000412 -0.000600 -23.108185 0.001742 0.000267 0.000765 -0.000414 0.000014 -0.168556 -0.101603 -13.195990 -21.669767 4.181363 -1.901454 -40.591866 -1.243449 -3.362310 -12.697745 -0.128264 -1.137540 0.000224 0.000727 0.001558 1.070342 -0.072139 -7.858976 -8.981057 11.306349 -1.955716 -31.943123 -1.958169 -6.793321 -28.176174 -1.507464 -6.063365 0.000870 0.000968 0.001391 1.672308 -7.091804 -6.253860 -33.518196 7.185143 2.897800 -20.961416 0.326832 1.852818 -13.568046 0.136855 1.215423 0.001178 0.000722 -0.000838 -9.199425 10.197689 52.161789 0.155160 6.403096 -0.913494 0.000000 0.000000 0.000000 -0.001556 0.000172 -0.000108 -5.933697 -7.973997 13.706530 -0.000534 0.000371 -0.395389 0.000000 -0.000000 -0.000000 -0.000000 0.000000 -0.000000 -0.000000 0.000000 0.000000 0.000000 0.000000 0.000000 1.651835 -8.918113 11.542459 0.000710 0.000870 -3.093488 -0.000000 0.000000 -0.000000 0.000000 -0.000000 0.000000 0.000000 -0.000000 0.000000 0.000000 0.000000 -0.000000 
7.816401 1.324521 -7.244589 1.891839 21.672012 -3.833634 -0.197393 -0.276974 5.583991 -0.074760 -0.020996 -1.519085 -0.491728 -0.231325 0.449051 0.794146 0.480653 7.149438 7.757982 -3.453966 4.815953 -11.154262 1.490142 2.975300 -3.562417 0.645317 0.882105 -0.000295 -0.000884 0.000074 12.949120 -9.329760 -2.126845 63.062813 -2.533704 26.600212 179.999786 58.253704 168.058762 -8.409846 -12.123241 -0.008817 38.033081 -5.894561 0.000714 39.009422 0.000678 -0.000338 24.220568 -0.001165 0.001350 0.001639 -0.003007 -0.001552 -1.396088 -1.126478 -7.474053 41.224781 -5.498862 -3.398306 47.596088 1.678826 -3.819995 20.628048 0.331912 -1.822159 -0.000434 0.000252 0.000053 -2.617972 -4.128137 -5.350680 26.965385 1.871060 -5.824872 49.330013 4.512262 -9.771034 34.096947 2.212068 -7.203008 -0.000307 -0.000023 -0.000106 -0.966323 7.487878 -1.997784 24.679434 -11.121725 2.239997 26.001152 -0.517854 2.266568 21.816338 -0.370851 1.922204 0.000893 0.000176 0.000344 7.109361 2.293086 52.859169 6.681053 -5.258461 1.790596 13.089961 -8.826499 3.225207 -0.003164 0.001848 -0.000109 -15.925987 4.648857 -1.321032 -55.584827 2.608372 30.631287 179.999969 -47.806664 179.853394 2.331203 18.947638 -0.004173 -35.082455 -0.050564 -0.000810 -32.190830 -0.000354 -0.000591 -23.002943 0.001707 -0.000165 0.000605 -0.000191 0.000079 -0.136418 -0.113272 -13.167607 -21.780554 4.202700 -1.910558 -40.381443 -1.231224 -3.347902 -12.643208 -0.127129 -1.132384 0.000180 0.000526 0.001527 1.082062 -0.070576 -7.851273 -9.008169 11.333081 -1.961237 -31.881525 -1.951084 -6.782737 -28.048817 -1.494870 -6.037958 0.000748 0.000815 0.001302 1.683493 -7.083208 -6.246283 -33.563816 7.197884 2.901803 -21.013445 0.328866 1.857457 -13.667662 0.139439 1.224576 0.001071 0.000875 -0.001022 -9.038919 9.936223 52.105659 0.114855 6.381656 -0.894727 0.000000 0.000000 0.000000 -0.001471 0.000220 0.000025 -5.868328 -7.942524 13.774516 -0.000777 0.000832 -0.364426 0.000000 -0.000000 -0.000000 -0.000000 0.000000 -0.000000 -0.000000 0.000000 0.000000 0.000000 0.000000 0.000000 1.619504 -9.078053 11.580430 0.001172 0.000723 -3.080905 -0.000000 0.000000 -0.000000 0.000000 -0.000000 0.000000 -0.000000 -0.000000 0.000000 0.000000 0.000000 -0.000000 
7.898426 1.325464 -7.213057 1.916621 21.696896 -3.882223 -0.296022 -0.261878 5.563123 -0.085629 -0.017178 -1.513559 -0.518482 -0.258831 0.431730 0.770876 0.477631 7.131629 7.897470 -3.547700 5.164643 -11.238902 1.498930 2.815839 -3.557298 0.644568 0.764194 -0.000590 -0.000356 0.000264 12.921538 -9.360657 -2.128073 63.081573 -2.405150 25.691584 179.999588 58.229942 167.351913 -8.778219 -12.261917 -0.004457 38.255753 -6.003403 -0.000116 39.436989 0.000503 -0.000350 24.168043 -0.001131 0.001268 0.001278 -0.003063 -0.001621 -1.439002 -1.143444 -7.248804 41.490536 -5.407252 -3.415903 47.737026 1.690072 -3.828614 20.595003 0.330850 -1.819193 -0.000506 0.000387 0.000507 -2.614453 -4.180017 -5.351183 27.097294 2.105037 -5.857853 49.502987 4.546794 -9.797057 34.311543 2.239802 -7.242928 -0.000072 -0.000068 0.000040 -0.904977 7.491732 -1.952438 25.132559 -11.380586 2.281349 26.794090 -0.551164 2.330822 22.235737 -0.385465 1.956847 0.001074 0.000356 0.000401 7.103561 2.127170 53.112926 6.872039 -5.304430 1.849594 13.261307 -8.947949 3.254618 -0.003000 0.001602 -0.000438 -15.916353 4.615537 -1.312469 -55.587612 2.514586 30.595222 179.999908 -47.665356 179.934311 2.360640 19.016277 -0.003356 -35.070942 -0.015609 -0.001070 -32.122684 -0.000294 -0.000578 -22.909349 0.001669 -0.000558 0.000460 0.000008 0.000121 -0.106268 -0.124412 -13.142841 -21.884068 4.221422 -1.919086 -40.173702 -1.219180 -3.333648 -12.596104 -0.126136 -1.127916 0.000135 0.000335 0.001493 1.092847 -0.065531 -7.842204 -9.035288 11.347804 -1.966851 -31.827543 -1.944859 -6.773462 -27.924509 -1.482547 -6.013160 0.000635 0.000687 0.001225 1.695228 -7.075367 -6.241019 -33.599686 7.207770 2.905054 -21.065584 0.330892 1.862073 -13.772534 0.142130 1.234126 0.000983 0.001008 -0.001182 -8.881559 9.668283 52.046265 0.068183 6.367044 -0.874220 0.000000 0.000000 0.000000 -0.001388 0.000233 0.000157 -5.812287 -7.913066 13.830889 -0.001019 0.001255 -0.332935 0.000000 -0.000000 -0.000000 -0.000000 0.000000 -0.000000 -0.000000 0.000000 0.000000 0.000000 0.000000 0.000000 1.583641 -9.214856 11.613470 0.001566 0.000591 -3.070152 -0.000000 0.000000 -0.000000 0.000000 -0.000000 0.000000 -0.000000 -0.000000 0.000000 0.000000 0.000000 -0.000000 
7.985060 1.327374 -7.187542 1.937552 21.709768 -3.926336 -0.374040 -0.249227 5.552099 -0.092551 -0.014533 -1.508218 -0.537217 -0.285513 0.414778 0.757251 0.475098 7.114070 8.022577 -3.621694 5.481340 -11.323171 1.518799 2.680620 -3.556432 0.645270 0.662483 -0.000848 0.000114 0.000419 12.889426 -9.390076 -2.128528 63.115700 -2.301827 24.900322 179.999451 58.234039 166.703217 -9.140319 -12.402053 -0.000298 38.454891 -6.099399 -0.000851 39.834801 0.000356 -0.000376 24.127266 -0.001100 0.001190 0.000980 -0.003086 -0.001665 -1.477167 -1.159999 -7.048300 41.731239 -5.321801 -3.431811 47.880470 1.701187 -3.837365 20.569763 0.330008 -1.816913 -0.000588 0.000497 0.000925 -2.611088 -4.228384 -5.347578 27.214060 2.320258 -5.887330 49.669106 4.579478 -9.821873 34.507015 2.264988 -7.279164 0.000134 -0.000083 0.000166 -0.848036 7.496450 -1.915675 25.550423 -11.621841 2.319164 27.534075 -0.582441 2.390449 22.624281 -0.399085 1.988893 0.001221 0.000518 0.000447 7.102119 1.978780 53.343243 7.045200 -5.342148 1.903310 13.421022 -9.061136 3.281960 -0.002867 0.001385 -0.000707 -15.905476 4.586997 -1.304928 -55.587124 2.448595 30.578072 179.999847 -47.555252 179.988235 2.377545 19.088329 -0.002913 -35.056484 0.011839 -0.001288 -32.064384 -0.000231 -0.000560 -22.827423 0.001628 -0.000911 0.000328 0.000182 0.000141 -0.078105 -0.135025 -13.121689 -21.980312 4.237531 -1.927040 -39.968647 -1.207317 -3.319548 -12.556430 -0.125283 -1.124137 0.000087 0.000153 0.001456 1.102696 -0.057006 -7.831769 -9.062411 11.350511 -1.972554 -31.781185 -1.939495 -6.765497 -27.803257 -1.470498 -5.988976 0.000531 0.000584 0.001160 1.707514 -7.068280 -6.238068 -33.625782 7.214804 2.907556 -21.117838 0.332912 1.866666 -13.882660 0.144927 1.244070 0.000914 0.001122 -0.001319 -8.727341 9.393873 51.983643 0.015144 6.359258 -0.851971 0.000000 0.000000 0.000000 -0.001307 0.000212 0.000288 -5.765565 -7.885624 13.875657 -0.001259 0.001641 -0.300916 0.000000 -0.000000 -0.000000 -0.000000 0.000000 0.000000 -0.000000 0.000000 0.000000 0.000000 0.000000 0.000000 1.544250 -9.328536 11.641540 0.001891 0.000474 -3.061226 -0.000000 0.000000 -0.000000 0.000000 -0.000000 0.000000 -0.000000 -0.000000 0.000000 0.000000 0.000000 -0.000000 
